<svg xmlns="http://www.w3.org/2000/svg" viewBox="0 0 256 256">
  <defs>
    <linearGradient id="g" x1="0" x2="1" y1="0" y2="1">
      <stop offset="0" stop-color="#D6B15E"/>
      <stop offset="1" stop-color="#B9933F"/>
    </linearGradient>
  </defs>
  <rect width="256" height="256" rx="56" fill="#0A0E16"/>
  <path d="M64 156c0-11 9-20 20-20h88c11 0 20 9 20 20v12c0 8-7 15-15 15h-8a24 24 0 0 1-46 0h-38a24 24 0 0 1-46 0h-8c-8 0-15-7-15-15v-12z" fill="url(#g)"/>
  <path d="M86 110c5-12 16-20 29-20h26c13 0 24 8 29 20l7 18H79l7-18z" fill="rgba(255,255,255,0.10)"/>
</svg>

